Coordinates
version=1
nRows=22
nColumns=24
inDegrees=yes

Units are S.I. units (second, meters, Newtons, ...)
Angles are in degrees.

endheader
time	pelvis_tilt	pelvis_list	pelvis_rotation	pelvis_tx	pelvis_ty	pelvis_tz	hip_flexion_r	hip_adduction_r	hip_rotation_r	knee_angle_r	ankle_angle_r	subtalar_angle_r	mtp_angle_r	hip_flexion_l	hip_adduction_l	hip_rotation_l	knee_angle_l	ankle_angle_l	subtalar_angle_l	mtp_angle_l	lumbar_extension	lumbar_bending	lumbar_rotation
      5.27500000	     -7.39970858	     -4.69376387	      5.25942358	     -0.74197728	      0.00065863	     -0.29019454	     11.70694692	      9.42142866	      4.67158426	    -13.06513826	      1.40721347	     -2.40269457	     12.92328477	     26.25063043	     -7.31327442	      0.12923227	    -60.01524366	    -11.11644336	     -5.84538419	     25.44028738	      8.07890903	      3.62502647	     -1.00805521
      5.28000000	     -7.38850851	     -4.50371197	      4.97222086	     -0.73736710	      0.00096403	     -0.28956961	     11.18930629	      9.31765802	      4.93209660	    -12.76521114	      1.60067264	     -2.26773889	     12.95094539	     26.71501919	     -7.09051655	     -0.18020344	    -59.42469908	    -10.72056467	     -5.87196241	     25.41695896	      7.99300886	      3.48688660	     -0.57790463
      5.28500000	     -7.39379975	     -4.31876877	      4.72251836	     -0.73278276	      0.00118946	     -0.28900650	     10.68940230	      9.20281016	      5.16007667	    -12.45212644	      1.79900006	     -2.15427736	     13.02529557	     27.19876322	     -6.84490651	     -0.42788535	    -58.79570899	    -10.36414690	     -5.91190505	     25.36242472	      7.93131873	      3.34564566	     -0.19021348
      5.29000000	     -7.35712897	     -4.15373142	      4.41512461	     -0.72822088	      0.00140329	     -0.28840724	     10.15231628	      9.11651417	      5.40567920	    -12.14574862	      1.97796412	     -2.00511225	     13.14750401	     27.61246898	     -6.65817321	     -0.74006690	    -58.12202958	    -10.00242107	     -6.01579340	     25.20446817	      7.81735151	      3.24620268	      0.26040323
      5.29500000	     -7.26008046	     -4.01638001	      4.12617895	     -0.72368405	      0.00162146	     -0.28787276	      9.54670599	      9.05185554	      5.63013646	    -11.81454700	      2.10051671	     -1.87951306	     13.35771693	     27.96013071	     -6.49144890	     -1.02427290	    -57.42597216	     -9.61361271	     -6.14503037	     24.79399901	      7.63592811	      3.17782580	      0.70051676
      5.30000000	     -7.23217804	     -3.86115912	      3.83922135	     -0.71916096	      0.00171974	     -0.28733323	      9.03279168	      8.96105065	      5.85577534	    -11.51529940	      2.24777899	     -1.79391920	     13.56172104	     28.36350433	     -6.30052947	     -1.29724191	    -56.67326539	     -9.24736877	     -6.25489064	     24.46840684	      7.53387972	      3.07584716	      1.08980522
      5.30500000	     -7.18741857	     -3.71369281	      3.55656999	     -0.71464280	      0.00178936	     -0.28683299	      8.50287266	      8.87373952	      6.08897270	    -11.21723142	      2.38817094	     -1.73351119	     13.76549914	     28.73697466	     -6.11254121	     -1.54740719	    -55.88247446	     -8.91157422	     -6.38525735	     24.09272284	      7.41343411	      2.98717715	      1.48149556
      5.31000000	     -7.12031447	     -3.58199019	      3.27468919	     -0.71018818	      0.00183630	     -0.28636467	      7.95983189	      8.79917164	      6.34601798	    -10.92655858	      2.50141609	     -1.69925127	     13.98378262	     29.08039776	     -5.94167859	     -1.78404700	    -55.06152921	     -8.57843499	     -6.50828923	     23.61191754	      7.25652788	      2.92039929	      1.89873913
      5.31500000	     -7.06118536	     -3.44829738	      2.97605093	     -0.70570174	      0.00185133	     -0.28591195	      7.44000284	      8.72296999	      6.61708007	    -10.67127473	      2.62177831	     -1.70945322	     14.18277258	     29.39993975	     -5.77280435	     -2.01575532	    -54.18130771	     -8.25403572	     -6.61341624	     23.10834669	      7.12476674	      2.85789563	      2.29424465
      5.32000000	     -6.99876582	     -3.32033885	      2.68192516	     -0.70126470	      0.00183063	     -0.28548478	      6.92762911	      8.64844937	      6.91425179	    -10.43009250	      2.72892177	     -1.74857501	     14.35145454	     29.70702295	     -5.61050835	     -2.23420546	    -53.26726824	     -7.93962210	     -6.69709490	     22.56617491	      6.97521126	      2.79886525	      2.70145156
      5.32500000	     -6.94080694	     -3.19372153	      2.38321106	     -0.69685753	      0.00177702	     -0.28507980	      6.43500097	      8.57293459	      7.23323998	    -10.21533461	      2.83684880	     -1.81723027	     14.47710016	     30.00015267	     -5.45321964	     -2.44696803	    -52.30827137	     -7.63838843	     -6.75486730	     22.01566392	      6.82606191	      2.74316676	      3.10641206
      5.33000000	     -6.86579245	     -3.08014975	      2.07878586	     -0.69247103	      0.00170237	     -0.28468878	      5.93231475	      8.51130078	      7.58853831	    -10.01542057	      2.93949298	     -1.93357915	     14.56000803	     30.26043295	     -5.31714709	     -2.65514975	    -51.31831902	     -7.33535735	     -6.77396868	     21.38033467	      6.65469531	      2.70510342	      3.53967485
      5.33500000	     -6.82634232	     -2.95611942	      1.78407824	     -0.68807333	      0.00156306	     -0.28433035	      5.48183013	      8.43323480	      7.93849020	     -9.84535734	      3.07638289	     -2.06471671	     14.58931125	     30.53416271	     -5.17016127	     -2.85954293	    -50.27218256	     -7.05935504	     -6.76574904	     20.83020328	      6.52707105	      2.65015870	      3.93055862
      5.34000000	     -6.75873111	     -2.84727779	      1.47274698	     -0.68376589	      0.00143898	     -0.28400071	      5.02975574	      8.37281293	      8.33120493	     -9.72456000	      3.17710049	     -2.24313366	     14.53969698	     30.75489615	     -5.03740275	     -3.03255219	    -49.18195055	     -6.76141272	     -6.72193513	     20.17360952	      6.34707108	      2.62026567	      4.35901108
      5.34500000	     -6.72327225	     -2.73558134	      1.17168511	     -0.67941094	      0.00125333	     -0.28367935	      4.61747869	      8.30566845	      8.72336298	     -9.62142237	      3.31171706	     -2.41592344	     14.44765254	     30.98515091	     -4.90829515	     -3.21444152	    -48.04071402	     -6.49432877	     -6.66178696	     19.57764202	      6.21492861	      2.57953872	      4.75194985
      5.35000000	     -6.68676074	     -2.63271820	      0.86949133	     -0.67506987	      0.00103938	     -0.28335752	      4.21447686	      8.24740578	      9.13079161	     -9.53855152	      3.45547801	     -2.60767293	     14.29987577	     31.19153437	     -4.79263695	     -3.38307040	    -46.85528671	     -6.24900557	     -6.58625350	     18.97259012	      6.08019206	      2.53788308	      5.14238730
      5.35500000	     -6.66120995	     -2.53502432	      0.58011992	     -0.67073766	      0.00078680	     -0.28309838	      3.83553663	      8.18891633	      9.53470229	     -9.47947373	      3.60883228	     -2.81122871	     14.10502843	     31.38871378	     -4.67468407	     -3.53093158	    -45.62727836	     -6.01642823	     -6.49300785	     18.35901176	      5.95375041	      2.50959626	      5.51992085
      5.36000000	     -6.62138174	     -2.44972760	      0.32438426	     -0.66638397	      0.00048214	     -0.28287239	      3.44092521	      8.14461990	      9.93523084	     -9.42682210	      3.79244522	     -3.09905102	     13.75035032	     31.55633952	     -4.55969451	     -3.65634943	    -44.38231470	     -5.67752275	     -6.31065471	     17.53574493	      5.81373662	      2.48245747	      5.85145233
      5.36500000	     -6.67448924	     -2.36015410	      0.05153034	     -0.66200570	      0.00011332	     -0.28266176	      3.16625368	      8.08080724	     10.27560524	     -9.40253354	      3.98265912	     -3.18182833	     13.63913933	     31.78774887	     -4.45063659	     -3.78835555	    -43.04897057	     -5.59652465	     -6.27956499	     17.11796482	      5.78513955	      2.45080913	      6.15936437
      5.37000000	     -6.63361707	     -2.29024586	     -0.23346018	     -0.65772979	     -0.00021233	     -0.28247135	      2.80308191	      8.04411929	     10.70049792	     -9.40444520	      4.15249477	     -3.40254483	     13.33984248	     31.90048258	     -4.36403745	     -3.90463868	    -41.70169479	     -5.40934632	     -6.20041093	     16.41326287	      5.62241776	      2.45443578	      6.55873097
      5.37500000	     -6.65537653	     -2.21635019	     -0.47497568	     -0.65335803	     -0.00063840	     -0.28231317	      2.50528943	      7.99613308	     11.05428559	     -9.40828020	      4.36532709	     -3.57387693	     13.06493699	     32.05840854	     -4.25813672	     -3.99348575	    -40.31533898	     -5.23396498	     -6.10642066	     15.72180323	      5.55130625	      2.43244602	      6.86719670
      5.38000000	     -6.64762862	     -2.16969967	     -0.65002954	     -0.64894059	     -0.00108887	     -0.28222235	      2.16504733	      7.97257090	     11.37128991	     -9.40639908	      4.63042311	     -3.74678193	     12.56277919	     32.18089848	     -4.15200386	     -4.02152805	    -38.94128892	     -4.87047761	     -5.81413195	     14.68819372	      5.45406064	      2.42448465	      7.07610263
